<?xml version="1.0" encoding="UTF-8" standalone="no"?>
<!-- Created with Inkscape (http://www.inkscape.org/) -->

<svg
   version="1.1"
   id="svg2"
   width="567.06665"
   height="567.06665"
   viewBox="0 0 567.06665 567.06665"
   sodipodi:docname="K&amp;A latest logo.eps"
   xmlns:inkscape="http://www.inkscape.org/namespaces/inkscape"
   xmlns:sodipodi="http://sodipodi.sourceforge.net/DTD/sodipodi-0.dtd"
   xmlns="http://www.w3.org/2000/svg"
   xmlns:svg="http://www.w3.org/2000/svg">
  <defs
     id="defs6" />
  <sodipodi:namedview
     id="namedview4"
     pagecolor="#ffffff"
     bordercolor="#000000"
     borderopacity="0.25"
     inkscape:showpageshadow="2"
     inkscape:pageopacity="0.0"
     inkscape:pagecheckerboard="0"
     inkscape:deskcolor="#d1d1d1" />
  <g
     id="g8"
     inkscape:groupmode="layer"
     inkscape:label="ink_ext_XXXXXX"
     transform="matrix(1.3333333,0,0,-1.3333333,0,567.06667)">
    <g
       id="g10"
       transform="scale(0.1)">
      <path
         d="M 4253,2126.5 C 4253,952.059 3300.94,0 2126.5,0 952.066,0 0,952.059 0,2126.5 0,3300.93 952.066,4253 2126.5,4253 3300.94,4253 4253,3300.93 4253,2126.5"
         style="fill:#231f20;fill-opacity:1;fill-rule:nonzero;stroke:none"
         id="path12" />
      <path
         d="m 2126.5,3732.25 c -885.41,0 -1605.746,-720.34 -1605.746,-1605.75 0,-885.41 720.336,-1605.75 1605.746,-1605.75 885.41,0 1605.75,720.34 1605.75,1605.75 0,885.41 -720.34,1605.75 -1605.75,1605.75 z m 0,-3386.949 c -982.15,0 -1781.195,799.039 -1781.195,1781.199 0,982.15 799.045,1781.2 1781.195,1781.2 982.16,0 1781.2,-799.05 1781.2,-1781.2 0,-982.16 -799.04,-1781.199 -1781.2,-1781.199"
         style="fill:#fbc707;fill-opacity:1;fill-rule:nonzero;stroke:none"
         id="path14" />
      <path
         d="m 1323.72,1785.35 v -645.5 h 168.88 v 112.28 l 43.34,50.43 96.37,-162.71 h 184.83 l -170.67,286.49 166.24,191.89 H 1622.59 L 1492.6,1458.18 v 327.17 h -168.88"
         style="fill:#ffffff;fill-opacity:1;fill-rule:nonzero;stroke:none"
         id="path16" />
      <path
         d="m 2031.19,1272.49 c -13.57,11.19 -20.33,25.94 -20.33,44.21 v 1.77 c 0,12.39 3.53,24.31 10.61,35.8 7.06,11.5 18.25,21.97 33.6,31.41 l 101.67,-103.47 c -11.79,-8.25 -23.86,-14.74 -36.24,-19.44 -12.38,-4.74 -24.77,-7.08 -37.13,-7.08 -21.24,0 -38.63,5.58 -52.18,16.8 m 45.98,290.48 c -5.3,10.89 -7.96,22.24 -7.96,34.04 v 1.76 c 0,16.5 4.56,29.77 13.71,39.79 9.12,10.02 21.06,15.05 35.8,15.05 14.16,0 25.66,-4.44 34.49,-13.27 8.84,-8.84 13.27,-20.94 13.27,-36.27 v -1.75 c 0,-31.26 -21.82,-56.6 -65.44,-76.06 -10.61,13.55 -18.56,25.79 -23.87,36.71 m 230.78,-435.5 115.85,83.12 -83.13,82.23 c 14.74,20.05 28.74,40.96 42.01,62.79 13.27,21.8 26.38,44.49 39.35,68.09 l -113.19,56.59 c -9.44,-17.69 -19,-34.79 -28.74,-51.29 -9.72,-16.52 -19.6,-32.15 -29.61,-46.87 l -68.98,67.2 c 36.55,17.11 65.87,38.61 87.98,64.56 22.11,25.92 33.16,58.05 33.16,96.37 v 1.78 c 0,22.39 -4.28,43.32 -12.81,62.78 -8.57,19.45 -20.79,36.25 -36.71,50.41 -15.91,14.14 -35.23,25.33 -57.91,33.6 -22.7,8.25 -48.2,12.36 -76.5,12.36 -30.05,0 -57.18,-4.55 -81.34,-13.69 -24.18,-9.16 -44.65,-21.38 -61.45,-36.69 -16.81,-15.35 -29.63,-33.18 -38.47,-53.51 -8.85,-20.33 -13.27,-41.71 -13.27,-64.1 v -1.77 c 0,-20.05 3.23,-39.65 9.72,-58.8 6.5,-19.17 16.8,-39.06 30.96,-59.7 -83.72,-37.73 -125.57,-95.5 -125.57,-173.31 v -1.76 c 0,-28.29 5.61,-53.5 16.8,-75.61 11.2,-22.11 26.67,-40.82 46.43,-56.15 19.75,-15.33 43.02,-26.97 69.86,-34.92 26.81,-7.96 56.14,-11.94 87.98,-11.94 35.95,0 68.96,5.45 99.04,16.36 30.07,10.9 58.35,26.37 84.89,46.41 l 63.65,-64.54"
         style="fill:#fbc707;fill-opacity:1;fill-rule:nonzero;stroke:none"
         id="path18" />
      <path
         d="m 2640.14,1248.17 c -11.22,9.14 -16.8,21.95 -16.8,38.46 v 1.78 c 0,17.68 6.63,31.97 19.88,42.88 13.27,10.91 32.29,16.35 57.04,16.35 12.39,0 24.33,-1.18 35.82,-3.53 11.5,-2.36 21.36,-5.3 29.61,-8.85 v -22.1 c 0,-24.19 -7.66,-43.33 -22.97,-57.47 -15.35,-14.16 -35.38,-21.23 -60.15,-21.23 -17.1,0 -31.24,4.55 -42.43,13.71 m 64.1,-102.58 c 22.69,10.91 42.29,25.49 58.81,43.78 v -49.53 h 166.23 v 275.01 c 0,33.6 -3.97,62.93 -11.94,87.98 -7.94,25.05 -21.07,46.43 -39.35,64.11 -18.87,18.86 -43.18,33.31 -72.95,43.33 -29.77,10.02 -66.17,15.03 -109.2,15.03 -41.26,0 -77.08,-3.39 -107.44,-10.17 -30.35,-6.78 -59.09,-15.77 -86.2,-26.97 l 34.49,-118.49 c 21.22,8.25 42.13,14.72 62.77,19.46 20.63,4.7 43.62,7.06 68.97,7.06 32.42,0 56.44,-6.77 72.07,-20.33 15.61,-13.57 23.44,-32.71 23.44,-57.48 v -7.95 c -13.58,4.7 -30.52,8.98 -50.85,12.83 -20.33,3.81 -41.71,5.75 -64.12,5.75 -28.29,0 -53.93,-3.25 -76.92,-9.74 -23,-6.5 -42.6,-15.92 -58.8,-28.3 -16.21,-12.37 -28.9,-28 -38.02,-46.86 -9.15,-18.87 -13.71,-40.68 -13.71,-65.43 v -1.77 c 0,-24.18 4.11,-45.4 12.38,-63.67 8.25,-18.28 19.59,-33.61 34.05,-45.97 14.44,-12.38 31.38,-21.82 50.84,-28.3 19.45,-6.49 40.67,-9.74 63.66,-9.74 31.83,0 59.1,5.47 81.79,16.36"
         style="fill:#ffffff;fill-opacity:1;fill-rule:nonzero;stroke:none"
         id="path20" />
      <path
         d="m 3061.9,1970.18 h -606.53 l -501.06,834.93 h 606.57 l 501.02,-834.93 v 0"
         style="fill:#fff200;fill-opacity:1;fill-rule:nonzero;stroke:none"
         id="path22" />
      <path
         d="m 1453.27,1970.18 h 606.52 l 501.09,834.93 h -606.57 l -501.04,-834.93 v 0"
         style="fill:#656263;fill-opacity:1;fill-rule:nonzero;stroke:none"
         id="path24" />
      <path
         d="m 2059.79,1970.18 h -606.52 l -262.16,453.62 605.9,-0.24 262.78,-453.38 v 0"
         style="fill:#fbc707;fill-opacity:1;fill-rule:nonzero;stroke:none"
         id="path26" />
      <path
         d="m 1797.01,2423.51 -605.9,0.29 421.64,848.89 606.21,-1.11 -421.95,-848.07 v 0"
         style="fill:#fff200;fill-opacity:1;fill-rule:nonzero;stroke:none"
         id="path28" />
    </g>
  </g>
</svg>
